<svg width="112.1" height="71.1" viewBox="0 0 112.1 71.1" xmlns="http://www.w3.org/2000/svg"><g id="svgGroup" stroke-linecap="round" fill-rule="evenodd" font-size="9pt" stroke="#000" stroke-width="0.25mm" fill="black" style="stroke:#000;stroke-width:0.25mm;fill:black"><path d="M 75.8 71.1 L 50.1 3.6 L 59.4 0 L 81.4 60.7 L 103.5 0.3 L 112.1 3.6 L 86.5 71.1 L 75.8 71.1 Z M 0 71.1 L 0 1.3 Q 4.2 0.8 9.05 0.55 A 189.812 189.812 0 0 1 15.979 0.324 A 222.326 222.326 0 0 1 19.3 0.3 Q 25.8 0.3 30.9 1.9 Q 36 3.5 39.5 6.3 Q 43 9.1 44.8 13.05 A 20.294 20.294 0 0 1 46.598 21.277 A 23.338 23.338 0 0 1 46.6 21.6 A 24.885 24.885 0 0 1 46.028 27.043 A 19.97 19.97 0 0 1 44.45 31.55 Q 42.3 35.9 38.45 38.9 A 25.074 25.074 0 0 1 32.729 42.213 A 31.482 31.482 0 0 1 29.2 43.45 A 39.641 39.641 0 0 1 22.02 44.782 A 49.664 49.664 0 0 1 17.3 45 Q 13.1 45 9.5 44.7 L 9.5 71.1 L 0 71.1 Z M 9.5 8.7 L 9.5 36.6 Q 10.6 36.738 12.007 36.851 A 95.16 95.16 0 0 0 13.35 36.95 Q 15.284 37.079 17.697 37.097 A 106.907 106.907 0 0 0 18.5 37.1 Q 24.6 37.1 28.793 35.286 A 15.072 15.072 0 0 0 32.35 33.15 A 12.849 12.849 0 0 0 37.15 23.752 A 17.917 17.917 0 0 0 37.2 22.4 A 14.619 14.619 0 0 0 36.462 17.649 A 12.131 12.131 0 0 0 32.55 12.1 Q 28.908 9.123 22.719 8.478 A 34.952 34.952 0 0 0 19.1 8.3 A 131.125 131.125 0 0 0 15.842 8.339 A 109.939 109.939 0 0 0 14 8.4 A 91.274 91.274 0 0 0 11.117 8.564 A 75.041 75.041 0 0 0 9.5 8.7 Z" vector-effect="non-scaling-stroke"/></g></svg>